<!DOCTYPE svg PUBLIC "-//W3C//DTD SVG 1.1//EN" "http://www.w3.org/Graphics/SVG/1.1/DTD/svg11.dtd">
<!-- Uploaded to: SVG Repo, www.svgrepo.com, Transformed by: SVG Repo Mixer Tools -->
<svg fill="#ffffff" version="1.1" id="Layer_1" xmlns="http://www.w3.org/2000/svg" xmlns:xlink="http://www.w3.org/1999/xlink" viewBox="0 0 512.176 512.176" xml:space="preserve" width="800px" height="800px" stroke="#ffffff">
<g id="SVGRepo_bgCarrier" stroke-width="0"/>
<g id="SVGRepo_tracerCarrier" stroke-linecap="round" stroke-linejoin="round"/>
<g id="SVGRepo_iconCarrier"> <g> <g> <ellipse cx="355.92" cy="137.936" rx="45.056" ry="44.848"/> </g> </g> <g> <g> <path d="M387.76,199.968h-63.792c0,0-45.824,0.512-45.824,42.56c0,36.336,0,39.504,0,39.696h155.44c0-0.192,0-3.344,0-39.696 C433.584,200.736,387.76,199.968,387.76,199.968z"/> </g> </g> <g> <g> <path d="M459.168,0H53.008C23.808,0,0.08,24.16,0.08,53.856v273.008c0,29.712,23.728,53.872,52.928,53.872h188.128l160.192,131.44 v-131.44h57.84c29.184,0,52.928-24.16,52.928-53.856V53.856C512.096,24.16,488.368,0,459.168,0z M480.08,326.864 c0,12.048-9.392,21.856-20.928,21.856h-89.84v95.776L252.56,348.72H53.008c-11.536,0.016-20.928-9.792-20.928-21.84V53.856 C32.08,41.808,41.472,32,53.008,32h406.16c11.52,0,20.912,9.808,20.912,21.856V326.864z"/> </g> </g> <g> <g> <rect x="79.232" y="93.568" width="152.256" height="32"/> </g> </g> <g> <g> <rect x="79.232" y="172.016" width="152.256" height="32"/> </g> </g> <g> <g> <rect x="79.232" y="250.448" width="152.256" height="32"/> </g> </g> </g>
</svg>