<?xml version="1.0" encoding="iso-8859-1"?>
<!-- Uploaded to: SVG Repo, www.svgrepo.com, Generator: SVG Repo Mixer Tools -->
<svg version="1.1" id="Layer_1" xmlns="http://www.w3.org/2000/svg" xmlns:xlink="http://www.w3.org/1999/xlink" 
	 viewBox="0 0 512 512" xml:space="preserve">
<g>
	<rect x="169.576" y="412.784" style="fill:#414752;" width="172.88" height="32"/>
	<rect x="84.584" y="480" style="fill:#414752;" width="342.848" height="32"/>
</g>
<g>
	<rect x="84.584" y="113.488" style="fill:#3B95D1;" width="342.848" height="32"/>
	<path style="fill:#3B95D1;" d="M256.008,373.552l-56.848-98.656h-84.064c-22.96,0-41.632-19.008-41.632-42.368V42.368
		C73.48,19.008,92.152,0,115.096,0h281.808c22.96,0,41.632,19.008,41.632,42.368v190.16c0,23.36-18.672,42.368-41.632,42.368H312.84
		L256.008,373.552z M115.096,32c-5.216,0-9.616,4.752-9.616,10.368v190.16c0,5.632,4.4,10.368,9.632,10.368h102.56l38.336,66.56
		l38.336-66.56h102.56c5.216,0,9.632-4.752,9.632-10.368V42.368c0-5.616-4.4-10.368-9.616-10.368H115.096z"/>
</g>
</svg>